<svg xmlns="http://www.w3.org/2000/svg" height="400px" viewBox="0 0 100 400"><defs><linearGradient id="c" x1="50" x2="50" y1="138" y2="400" gradientUnits="userSpaceOnUse"><stop offset="0" stop-opacity="0"/><stop offset=".0076" stop-opacity=".16"/><stop offset=".0916" stop-opacity=".4"/><stop offset=".1069" stop-opacity=".051"/><stop offset="1" stop-color="#f9f9f9" stop-opacity="0"/></linearGradient><linearGradient id="d" x1="50" x2="50" y1="141" y2="161" gradientUnits="userSpaceOnUse"><stop offset="0" stop-color="#535353"/><stop offset=".15" stop-color="#4f4f4f"/><stop offset=".5" stop-color="#444"/><stop offset=".8182" stop-color="#3e3e3e"/><stop offset="1" stop-color="#3b3b3b"/></linearGradient><linearGradient id="a" x1="50" x2="50" y2="132" gradientUnits="userSpaceOnUse"><stop offset="0"/><stop offset=".5"/><stop offset=".6818" stop-color="#221414"/><stop offset=".8333" stop-color="#472a2a"/><stop offset="1" stop-color="#673d3d"/></linearGradient><linearGradient id="b" x1="50" x2="50" y1="135" y2="66" gradientUnits="userSpaceOnUse"><stop offset="0" stop-color="#734646"/><stop offset=".5" stop-color="#623c3c" stop-opacity=".53"/><stop offset="1" stop-color="#653e3e" stop-opacity=".25"/></linearGradient></defs><path fill="url(#a)" d="M0 0h100v141.3534H0z"/><path fill="url(#b)" d="M0 0v.4738l100 100.2507v-.9477L.473.0003H.0003Zm4.5273 0 95.473 95.7123v-.9477L5.4733.0006H4.528Zm5 0 90.473 90.6997v-.9476L10.4733.0007H9.528Zm5 0 85.473 85.6872v-.9477L15.4733.0007h-.9453zm5 0 80.473 80.6747v-.9477L20.4733.0007h-.9453zm5 0 75.473 75.6622v-.9477L25.4733.0007h-.9453zm5 0 70.473 70.6496v-.9477L30.4733.0007h-.9453zm5 0 65.473 65.637v-.9476L35.4733.0007h-.9453zm5 0 60.473 60.6246v-.9477L40.4733.0007h-.9453zm5 0 55.473 55.612v-.9476L45.4733.0007h-.9453zm5 0 50.473 50.5995v-.9477L50.4733.0007h-.9453zm5 0 45.473 45.587v-.9477L55.4733.0007h-.9453zm5 0 40.473 40.5744v-.9476L60.4733.0007h-.9453zm5 0 35.473 35.562v-.9478L65.4733.0007h-.9453zm5 0 30.473 30.5494v-.9477L70.4733.0007h-.9453zm5 0 25.473 25.5368v-.9476L75.4733.0007h-.9453zm5 0 20.473 20.5243v-.9477L80.4733.0006h-.9453zm5 0 15.473 15.5118v-.9477L85.4733.0007h-.9453zm5 0 10.473 10.4992v-.9476L90.473.0004h-.9453zm5 0L100 5.4864v-.9477L95.4727.0001h-.9453ZM.0003 4.5386v.9477l100 100.2507v-.9477L.0003 4.5386Zm0 5.0126v.9477l100 100.2506v-.9477L.0003 9.5512Zm0 5.0125v.9477l100 100.2506v-.9477l-100-100.2506Zm0 5.0125v.9477l100 100.2507v-.9477l-100-100.2507Zm0 5.0126v.9477l100 100.2506v-.9477l-100-100.2506Zm0 5.0125v.9477l100 100.2506v-.9477l-100-100.2506Zm0 5.0125v.9477l100 100.2506v-.9476l-100-100.2507Zm0 5.0126v.9476l100 100.2507v-.9477l-100-100.2506Zm0 5.0125v.9496l95.764 96.1053.4746-.4738L.001 44.6385zm0 5.0125v.9477l90.764 90.9915.4727-.4739L.001 49.6521zm0 5.0126v.9476l85.764 85.979.4727-.4739L.001 54.6647zm0 5.0125v.9477l80.764 80.9664.4727-.4739L.001 59.6771zm0 5.0125v.9477l75.764 75.9539.4727-.4739L.001 64.6897zm0 5.0126v.9476l70.764 70.9414.4727-.4739L.001 69.7022zm0 5.0125v.9477l65.764 65.9288.4727-.4739L.001 74.7147zm0 5.0125v.9477l60.764 60.9163.4727-.4739L.001 79.7273zm0 5.0125v.9477l55.764 55.9038.4727-.4739L.001 84.7398zm0 5.0126v.9477l50.764 50.8912.4727-.4739L.001 89.7523zm0 5.0125v.9477l45.764 45.8787.4727-.4739L.001 94.765zm0 5.0125v.9477l40.764 40.8662.4727-.4738L.001 99.7773zm0 5.0126v.9477l35.764 35.8536.4727-.4738L.001 104.7899zm0 5.0125v.9477l30.764 30.8411.4727-.4738L.001 109.8024zm0 5.0125v.9477l25.764 25.8286.4727-.4738L.001 114.815Zm0 5.0126v.9477l20.764 20.816.4727-.4738L.001 119.8274zm0 5.0125v.9477l15.764 15.8035.4727-.4739L.001 124.8401zm0 5.0125v.9477l10.764 10.791.4727-.4739L.001 129.8526zm0 5.0126v.9476l5.7637 5.7782.4727-.4739-6.2363-6.2519z"/><path fill="url(#c)" d="M0 137.3434V400h100V137.3434Z"/><path fill="url(#d)" d="M0 140.3509h100v22.0551H0z"/></svg>